#!OML:ASF F:\VICON\USERDATA\INSTALL\rory3\rory3.ASF
:FULLY-SPECIFIED
:DEGREES
737
root 1.08862 32.5749 -2.76678 -169.806 -13.2084 -178.263
lowerback 9.08623 -1.17798 -6.74514
upperback -0.68511 -2.33904 0.0401219
thorax -5.56057 -0.962992 4.15636
lowerneck -21.7272 -0.280322 -9.40844
upperneck 31.6116 0.804427 2.63838
head 14.4903 -0.96133 2.71073
rclavicle -2.60408e-014 -1.98785e-014
rhumerus -19.6368 -2.56898 -81.572
rradius 65.7338
rwrist -18.0629
rhand -17.9015 14.2532
rfingers 7.12502
rthumb 8.36536 -15.5611
lclavicle -2.60408e-014 -1.98785e-014
lhumerus -0.735566 -24.516 88.8398
lradius 62.7478
lwrist 7.61428
lhand -27.636 28.8977
lfingers 7.12502
lthumb -1.03439 58.8749
rfemur -27.2162 -4.51604 22.6252
rtibia 52.2215
rfoot -22.9462 -3.45182
rtoes -10.6175
lfemur -31.7923 7.49738 -28.2821
ltibia 38.6695
lfoot -19.9449 1.87873
ltoes -0.746439
738
root 1.08583 32.6068 -2.78173 -169.747 -13.0776 -178.381
lowerback 8.91083 -1.14897 -6.82956
upperback -0.690577 -2.30098 -0.0242955
thorax -5.4714 -0.946699 4.12468
lowerneck -21.9554 -0.359256 -9.192
upperneck 31.4661 0.70823 2.54547
head 14.4848 -0.968062 2.62064
rclavicle 5.1684e-015 -2.8625e-014
rhumerus -19.4765 -2.73245 -81.6919
rradius 65.2162
rwrist -17.9834
rhand -17.7139 14.2876
rfingers 7.12502
rthumb 8.54644 -15.5195
lclavicle 5.1684e-015 -2.8625e-014
lhumerus -0.893235 -24.5349 88.8759
lradius 62.4337
lwrist 7.54117
lhand -27.7472 28.642
lfingers 7.12502
lthumb -1.14171 58.6187
rfemur -27.2892 -4.51612 22.4857
rtibia 52.1876
rfoot -23.3033 -3.15721
rtoes -10.5167
lfemur -31.4357 7.38047 -28.3616
ltibia 38.0755
lfoot -19.6548 2.04803
ltoes -1.17321
739
root 1.08386 32.6355 -2.79755 -169.731 -12.9912 -178.433
lowerback 8.77415 -1.13507 -6.96942
upperback -0.79943 -2.28636 0.0133239
thorax -5.50468 -0.929686 4.23834
lowerneck -21.9446 -0.362583 -9.20768
upperneck 31.3955 0.728897 2.51388
head 14.4501 -0.960562 2.6131
rclavicle 1.78906e-014 -1.03368e-014
rhumerus -19.5292 -2.71752 -81.7083
rradius 64.6153
rwrist -17.7382
rhand -17.7285 14.4616
rfingers 7.12502
rthumb 8.53239 -15.346
lclavicle 1.78906e-014 -1.03368e-014
lhumerus -1.35494 -24.4246 89.1394
lradius 62.2344
lwrist 7.36411
lhand -27.7734 28.6906
lfingers 7.12502
lthumb -1.16707 58.6672
rfemur -27.3426 -4.56554 22.4189
rtibia 52.1158
rfoot -23.7471 -2.81901
rtoes -11.1544
lfemur -31.0513 7.28875 -28.3582
ltibia 37.4822
lfoot -19.3651 2.1624
ltoes -1.78329
740
root 1.08238 32.6632 -2.81241 -169.749 -12.892 -178.381
lowerback 8.67767 -1.17327 -6.8621
upperback -0.82066 -2.31646 0.0288544
thorax -5.47169 -0.947665 4.19481
lowerneck -22.1938 -0.343747 -9.18372
upperneck 31.2632 0.823887 2.4996
head 14.4391 -0.900872 2.62295
rclavicle -2.00773e-014 -8.82604e-014
rhumerus -19.3663 -2.56737 -81.8241
rradius 64.0641
rwrist -17.2883
rhand -17.9313 14.627
rfingers 7.12502
rthumb 8.33662 -15.1885
lclavicle -2.00773e-014 -8.82604e-014
lhumerus -1.51565 -24.2509 89.1478
lradius 61.9761
lwrist 7.23491
lhand -27.7641 28.924
lfingers 7.12502
lthumb -1.15809 58.9006
rfemur -27.3458 -4.52878 22.4646
rtibia 51.9389
rfoot -24.2047 -2.29742
rtoes -11.002
lfemur -30.6533 7.20486 -28.2264
ltibia 36.8509
lfoot -19.0289 2.239
ltoes -2.13716
741
root 1.08148 32.7022 -2.8264 -169.691 -12.831 -178.309
lowerback 8.52992 -1.22749 -6.76464
upperback -0.968502 -2.36652 0.0693866
thorax -5.53992 -0.966759 4.18633
lowerneck -21.886 -0.283796 -9.21038
upperneck 30.9251 0.894356 2.54339
head 14.2155 -0.846768 2.65071
rclavicle 3.83654e-014 1.74931e-014
rhumerus -19.5194 -2.39359 -81.9408
rradius 63.6497
rwrist -16.6334
rhand -18.3083 14.803
rfingers 7.12502
rthumb 7.97278 -15.0267
lclavicle 3.83654e-014 1.74931e-014
lhumerus -1.86236 -24.1077 89.2656
lradius 61.6472
lwrist 7.21078
lhand -27.8296 28.863
lfingers 7.12502
lthumb -1.22133 58.8393
rfemur -27.3799 -4.43198 22.5425
rtibia 51.6367
rfoot -24.547 -1.95441
rtoes -10.5916
lfemur -30.3204 7.04263 -28.0552
ltibia 36.1854
lfoot -18.675 2.24345
ltoes -1.82853
742
root 1.08063 32.7504 -2.84033 -169.648 -12.9388 -178.208
lowerback 8.36372 -1.25182 -6.5079
upperback -0.98811 -2.36415 -0.00475056
thorax -5.47867 -0.976571 3.95773
lowerneck -21.9882 -0.35027 -9.09926
upperneck 30.7456 0.767197 2.65966
head 14.1665 -0.849223 2.65744
rclavicle 1.47101e-014 -6.36111e-014
rhumerus -19.511 -2.55213 -82.1367
rradius 63.1888
rwrist -15.9238
rhand -18.8312 14.9054
rfingers 7.12502
rthumb 7.46806 -14.9427
lclavicle 1.47101e-014 -6.36111e-014
lhumerus -1.99559 -24.3179 89.2014
lradius 61.3905
lwrist 7.2307
lhand -27.7991 28.7763
lfingers 7.12502
lthumb -1.19193 58.7527
rfemur -27.322 -4.41493 22.6697
rtibia 51.2127
rfoot -24.8223 -1.95849
rtoes -10.4182
lfemur -29.9457 6.80279 -27.8464
ltibia 35.5031
lfoot -18.3842 2.22855
ltoes -1.57229
743
root 1.08506 32.7887 -2.85699 -169.671 -12.9963 -178.211
lowerback 8.26914 -1.37587 -6.56504
upperback -1.02541 -2.52275 0.0773992
thorax -5.44026 -1.05143 4.09208
lowerneck -22.2256 -0.301685 -9.52404
upperneck 30.744 0.926964 3.02836
head 14.1986 -0.772512 2.91262
rclavicle 7.95139e-015 -3.89618e-014
rhumerus -19.4183 -2.14262 -82.2498
rradius 62.6849
rwrist -15.334
rhand -19.3355 14.9162
rfingers 7.12502
rthumb 6.98132 -14.9487
lclavicle 7.95139e-015 -3.89618e-014
lhumerus -2.25221 -23.9588 89.3097
lradius 61.1446
lwrist 7.14615
lhand -27.7355 28.9242
lfingers 7.12502
lthumb -1.1305 58.9009
rfemur -27.1319 -4.367 22.6913
rtibia 50.7426
rfoot -25.0781 -1.93394
rtoes -10.5597
lfemur -29.4761 6.59713 -27.7354
ltibia 34.8145
lfoot -18.023 2.36474
ltoes -1.9559
744
root 1.0877 32.8244 -2.87518 -169.647 -13.0315 -178.22
lowerback 8.16012 -1.36016 -6.6203
upperback -1.14673 -2.50129 0.097639
thorax -5.50631 -1.03277 4.14034
lowerneck -22.0349 -0.360565 -9.73764
upperneck 30.5442 0.837351 3.26253
head 14.0733 -0.788828 3.02334
rclavicle 1.13307e-014 1.27222e-014
rhumerus -19.5782 -2.15261 -82.279
rradius 62.2305
rwrist -14.7907
rhand -19.875 15.0259
rfingers 7.12502
rthumb 6.46051 -14.8556
lclavicle 1.13307e-014 1.27222e-014
lhumerus -2.56224 -24.0364 89.5565
lradius 60.8298
lwrist 7.11012
lhand -27.7341 29.035
lfingers 7.12502
lthumb -1.12912 59.0118
rfemur -27.0411 -4.35164 22.6777
rtibia 50.251
rfoot -25.2994 -1.70368
rtoes -10.4891
lfemur -29.081 6.37746 -27.6478
ltibia 34.1534
lfoot -17.6423 2.47672
ltoes -2.56885
745
root 1.08633 32.8626 -2.89078 -169.587 -12.9555 -178.187
lowerback 8.00368 -1.35158 -6.4927
upperback -1.26483 -2.47352 0.0304841
thorax -5.55333 -1.01972 3.99129
lowerneck -21.792 -0.386279 -9.76699
upperneck 30.2544 0.774284 3.35391
head 13.8989 -0.78678 3.04667
rclavicle 1.90833e-014 6.36111e-015
rhumerus -19.6482 -2.17251 -82.4953
rradius 61.6773
rwrist -14.1267
rhand -20.4846 15.1034
rfingers 7.12502
rthumb 5.872 -14.7952
lclavicle 1.90833e-014 6.36111e-015
lhumerus -2.94879 -24.0636 89.6235
lradius 60.6504
lwrist 7.10641
lhand -27.8227 28.8762
lfingers 7.12502
lthumb -1.21472 58.8525
rfemur -27.0896 -4.26261 22.6832
rtibia 49.7895
rfoot -25.4074 -1.57936
rtoes -10.664
lfemur -28.7843 6.22397 -27.5464
ltibia 33.5579
lfoot -17.2539 2.58857
ltoes -2.72829
